fd_1_states
version=1
nRows=24
nColumns=17
inDegrees=yes

# SIMM Motion File Header:
name fd_1_states
datacolumns 17
datarows 24
otherdata 1
range 0.36948254 0.40885800
endheader
time	/jointset/r_shoulder/r_shoulder_elev/value	/jointset/r_shoulder/r_shoulder_elev/speed	/jointset/r_elbow/r_elbow_flex/value	/jointset/r_elbow/r_elbow_flex/speed	/forceset/TRIlong/activation	/forceset/TRIlong/fiber_length	/forceset/TRIlat/activation	/forceset/TRIlat/fiber_length	/forceset/TRImed/activation	/forceset/TRImed/fiber_length	/forceset/BIClong/activation	/forceset/BIClong/fiber_length	/forceset/BICshort/activation	/forceset/BICshort/fiber_length	/forceset/BRA/activation	/forceset/BRA/fiber_length
      0.36948254	      0.00302607	      0.30019734	     51.71222911	    139.13374277	      0.02009743	      0.15662710	      0.10038417	      0.08999201	      0.09956254	      0.08505698	      0.44392808	      0.12555875	      0.06560140	      0.12649679	      0.02096482	      0.08142955
      0.37027029	      0.00326014	      0.29374683	     51.82183923	    139.15404841	      0.02009642	      0.15666783	      0.10063038	      0.09003256	      0.09980428	      0.08509739	      0.44465214	      0.12548503	      0.06523968	      0.12643192	      0.02095478	      0.08140215
      0.37105804	      0.00348849	      0.28601877	     51.93146720	    139.17797038	      0.02009542	      0.15670864	      0.10136701	      0.09007226	      0.10041586	      0.08513718	      0.44598455	      0.12541114	      0.06486860	      0.12636694	      0.02094483	      0.08137469
      0.37184579	      0.00371104	      0.27930578	     52.04111303	    139.19854284	      0.02009443	      0.15674947	      0.10203337	      0.09011116	      0.10096818	      0.08517641	      0.44724705	      0.12533698	      0.06450180	      0.12630185	      0.02093500	      0.08134717
      0.37435780	      0.00439905	      0.27216385	     52.39082218	    139.21956598	      0.02009134	      0.15687958	      0.10368899	      0.09023442	      0.10234020	      0.08530122	      0.45073970	      0.12509929	      0.06336262	      0.12609350	      0.02090431	      0.08125898
      0.37686981	      0.00508762	      0.27644460	     52.74052719	    139.20562383	      0.02008834	      0.15700942	      0.10481392	      0.09035935	      0.10327185	      0.08542748	      0.45354925	      0.12486066	      0.06226831	      0.12588389	      0.02087463	      0.08117015
      0.37927683	      0.00575264	      0.27384708	     53.07559799	    139.21313107	      0.02008557	      0.15713361	      0.10555335	      0.09048091	      0.10388365	      0.08554988	      0.45572767	      0.12463182	      0.06126000	      0.12568180	      0.02084711	      0.08108445
      0.38023530	      0.00601260	      0.26803648	     53.20903756	    139.23068355	      0.02008449	      0.15718297	      0.10587260	      0.09052970	      0.10414635	      0.08559890	      0.45659131	      0.12454073	      0.06087100	      0.12560099	      0.02083640	      0.08105017
      0.38119377	      0.00626570	      0.26009306	     53.34249781	    139.25456150	      0.02008342	      0.15723232	      0.10674436	      0.09057756	      0.10485796	      0.08564714	      0.45814483	      0.12444942	      0.06050111	      0.12551996	      0.02082582	      0.08101580
      0.38215225	      0.00651155	      0.25330646	     53.47597970	    139.27466263	      0.02008237	      0.15728163	      0.10752818	      0.09062448	      0.10549752	      0.08569464	      0.45961632	      0.12435775	      0.06013750	      0.12543870	      0.02081537	      0.08098133
      0.38485064	      0.00718266	      0.24705173	     53.85183271	    139.29133325	      0.02007948	      0.15742034	      0.10920760	      0.09075644	      0.10686681	      0.08582836	      0.46316464	      0.12409842	      0.05914274	      0.12520869	      0.02078667	      0.08088381
      0.38754904	      0.00784780	      0.24482278	     54.22769816	    139.29661805	      0.02007669	      0.15755862	      0.11032245	      0.09089045	      0.10777435	      0.08596369	      0.46598421	      0.12383825	      0.05818907	      0.12497694	      0.02075898	      0.08078556
      0.38976072	      0.00837701	      0.23108203	     54.53581418	    139.33819299	      0.02007447	      0.15767183	      0.11095162	      0.09100182	      0.10828561	      0.08607575	      0.46786038	      0.12362493	      0.05743676	      0.12478572	      0.02073702	      0.08070450
      0.39036982	      0.00851574	      0.22415352	     54.62069194	    139.35932581	      0.02007387	      0.15770295	      0.11119663	      0.09103263	      0.10860808	      0.08610664	      0.46848298	      0.12356620	      0.05727224	      0.12473284	      0.02073108	      0.08068209
      0.39097892	      0.00864992	      0.21641423	     54.70558353	    139.38288824	      0.02007328	      0.15773407	      0.11164759	      0.09106311	      0.10935283	      0.08613679	      0.46943424	      0.12350735	      0.05719423	      0.12467976	      0.02072519	      0.08065965
      0.39314761	      0.00909376	      0.19559596	     55.00793753	    139.44533858	      0.02007120	      0.15784478	      0.11295444	      0.09117018	      0.11150625	      0.08624094	      0.47244883	      0.12329686	      0.05692217	      0.12448892	      0.02070461	      0.08057942
      0.39531629	      0.00950844	      0.18846474	     55.31037706	    139.46519648	      0.02006918	      0.15795530	      0.11389725	      0.09127757	      0.11305557	      0.08634527	      0.47495959	      0.12308544	      0.05665880	      0.12429563	      0.02068461	      0.08049872
      0.39872853	      0.01013805	      0.17786395	     55.78630268	    139.49507172	      0.02006613	      0.15812899	      0.11488007	      0.09144869	      0.11466724	      0.08651287	      0.47809337	      0.12275215	      0.05626128	      0.12398765	      0.02065429	      0.08037080
      0.39995096	      0.01034926	      0.16678683	     55.95684470	    139.52861602	      0.02006506	      0.15819086	      0.11512684	      0.09151051	      0.11507144	      0.08657374	      0.47901632	      0.12263274	      0.05612371	      0.12387637	      0.02064376	      0.08032469
      0.40045602	      0.01043197	      0.16059340	     56.02731989	    139.54736815	      0.02006463	      0.15821645	      0.11559677	      0.09153590	      0.11550152	      0.08659884	      0.47970273	      0.12258338	      0.05598714	      0.12383030	      0.02063946	      0.08030560
      0.40096108	      0.01051145	      0.15418062	     56.09780483	    139.56671183	      0.02006420	      0.15824205	      0.11621954	      0.09156069	      0.11603970	      0.08662354	      0.48052607	      0.12253391	      0.05581095	      0.12378428	      0.02063519	      0.08028648
      0.40322324	      0.01083632	      0.13737737	     56.41359668	    139.61525058	      0.02006230	      0.15835663	      0.11849485	      0.09166866	      0.11800659	      0.08673234	      0.48381518	      0.12231121	      0.05503851	      0.12357874	      0.02061640	      0.08020053
      0.40548539	      0.01115087	      0.14382443	     56.72941105	    139.59060215	      0.02006046	      0.15847098	      0.12011732	      0.09177673	      0.11940945	      0.08684172	      0.48653988	      0.12208732	      0.05429256	      0.12337368	      0.02059817	      0.08011407
      0.40885800	      0.01167573	      0.16694506	     57.20006033	    139.51151421	      0.02005782	      0.15864120	      0.12171927	      0.09194114	      0.12079435	      0.08700762	      0.48976446	      0.12175274	      0.05322749	      0.12306789	      0.02057198	      0.07998431
